<?xml version="1.0" standalone="no"?>
<!DOCTYPE svg PUBLIC "-//W3C//DTD SVG 20010904//EN"
 "http://www.w3.org/TR/2001/REC-SVG-20010904/DTD/svg10.dtd">
<svg version="1.0" xmlns="http://www.w3.org/2000/svg"
 width="64.000000pt" height="64.000000pt" viewBox="0 0 64.000000 64.000000"
 preserveAspectRatio="xMidYMid meet">

<g transform="translate(0.000000,64.000000) scale(0.100000,-0.100000)"
fill="#000000" stroke="none">
<path d="M437 574 c-3 -3 -3 -12 -1 -19 3 -7 -3 -16 -14 -19 -19 -6 -42 -45
-42 -71 0 -8 -5 -15 -11 -15 -6 0 -9 7 -6 15 4 8 2 17 -3 20 -6 4 -14 -5 -20
-19 -6 -16 -15 -24 -24 -20 -12 5 -19 30 -28 106 -2 11 -12 16 -33 16 -48 -1
-71 -21 -78 -70 -8 -55 -39 -130 -45 -105 -2 9 -8 17 -13 17 -5 0 -9 -8 -9
-17 -1 -10 -15 -27 -33 -38 -19 -12 -33 -30 -35 -45 -2 -14 -12 -33 -23 -43
-24 -23 -24 -46 0 -72 112 -121 142 -135 304 -135 101 0 115 2 172 29 35 17
72 42 84 58 11 15 30 38 42 50 25 25 20 68 -9 77 -14 5 -17 19 -16 93 0 101
-8 126 -39 121 -18 -2 -23 -11 -27 -48 -6 -48 -13 -39 -24 31 -4 20 -15 44
-26 54 -24 22 -26 35 -5 35 8 0 15 5 15 10 0 11 -43 14 -53 4z m-179 -74 c34
0 28 -42 -12 -82 -27 -27 -38 -32 -54 -25 -19 9 -19 12 -6 43 8 18 14 48 14
65 0 30 1 31 18 16 10 -10 28 -17 40 -17z m210 8 c7 -7 12 -20 12 -29 0 -9 7
-39 16 -67 15 -46 15 -51 -1 -76 -21 -32 -28 -28 -31 22 -3 26 -12 45 -34 64
-33 31 -38 58 -14 82 19 19 36 20 52 4z m110 -143 c6 -71 -3 -85 -54 -85 l-45
0 25 33 c14 19 31 48 37 66 15 42 33 35 37 -14z m-361 -17 c13 -12 23 -32 23
-45 0 -20 -5 -23 -39 -23 -22 0 -43 -4 -46 -10 -4 -7 71 -10 218 -10 184 0
227 -3 237 -15 26 -32 1 -35 -291 -35 -256 0 -290 2 -296 16 -8 22 14 34 65
34 23 0 42 5 42 10 0 6 -16 10 -35 10 -28 0 -35 4 -35 19 0 25 26 51 50 51 10
0 22 5 25 10 11 18 58 11 82 -12z m273 -208 c0 -12 -16 -26 -43 -39 -84 -41
-273 -23 -341 32 l-29 24 206 0 c193 1 207 0 207 -17z"/>
<path d="M420 141 c0 -6 4 -12 9 -15 13 -8 42 4 35 15 -7 12 -44 12 -44 0z"/>
<path d="M150 125 c0 -11 7 -15 23 -13 12 2 22 8 22 13 0 6 -10 11 -22 13 -16
2 -23 -2 -23 -13z"/>
<path d="M360 120 c0 -5 9 -10 20 -10 11 0 20 5 20 10 0 6 -9 10 -20 10 -11 0
-20 -4 -20 -10z"/>
</g>
</svg>
