<?xml version="1.0" standalone="no"?>
<!DOCTYPE svg PUBLIC "-//W3C//DTD SVG 20010904//EN"
 "http://www.w3.org/TR/2001/REC-SVG-20010904/DTD/svg10.dtd">
<svg version="1.0" xmlns="http://www.w3.org/2000/svg"
 width="512.000000pt" height="512.000000pt" viewBox="0 0 512.000000 512.000000"
 preserveAspectRatio="xMidYMid meet">

<g transform="translate(0.000000,512.000000) scale(0.100000,-0.100000)"
fill="#000000" stroke="none">
<path d="M1010 5025 c-157 -25 -331 -91 -456 -170 -69 -44 -253 -187 -254
-197 0 -4 52 -93 115 -198 l114 -190 -50 -70 c-35 -48 -105 -187 -230 -456
l-179 -388 151 -253 c126 -211 154 -251 168 -244 9 5 165 102 346 215 255 160
336 206 362 206 20 0 33 -5 33 -12 0 -7 11 -110 25 -228 31 -270 31 -255 -4
-269 -23 -10 -38 -9 -92 9 -153 52 -318 -18 -389 -165 -32 -68 -35 -189 -4
-255 l21 -45 -30 -40 c-16 -22 -38 -59 -49 -82 -13 -29 -25 -43 -38 -43 -75 0
-213 -96 -265 -184 -20 -34 -85 -247 -85 -278 0 -5 77 -8 170 -8 l170 0 0
-240 0 -240 -240 0 -240 0 0 -560 0 -560 2480 0 2480 0 0 560 0 560 -480 0
-480 0 0 109 c0 60 -7 146 -15 190 l-16 82 51 56 c80 88 139 227 140 331 l0
32 -79 0 -79 0 -7 -47 c-19 -128 -97 -239 -207 -294 -52 -26 -101 -37 -376
-79 -175 -28 -324 -50 -333 -50 -20 0 -90 99 -129 182 -36 77 -57 155 -66 247
l-6 70 113 56 c176 88 207 126 235 291 9 55 25 115 34 134 38 73 110 119 202
127 l58 6 0 -80 c0 -97 20 -168 63 -225 31 -42 229 -187 255 -188 21 0 216
135 247 172 42 50 67 113 74 192 l6 71 32 -44 c17 -23 42 -71 54 -106 43 -122
141 -219 258 -255 54 -17 92 -20 257 -20 l194 0 0 79 0 79 -197 4 c-181 3
-202 5 -239 25 -59 31 -97 80 -129 162 -15 39 -44 94 -65 122 -43 57 -123 122
-172 139 -22 7 -43 26 -61 55 -69 109 -219 160 -350 121 -55 -17 -134 -73
-162 -115 -19 -30 -22 -31 -96 -31 -169 0 -302 -79 -375 -221 -15 -31 -34 -97
-45 -158 -12 -63 -26 -112 -37 -124 -17 -19 -91 -61 -97 -55 -26 30 -55 142
-55 213 0 67 -18 142 -53 219 -23 50 -28 71 -19 74 31 10 117 85 153 132 39
52 79 158 79 211 l0 29 -78 0 -79 0 -12 -54 c-14 -64 -55 -124 -105 -155 -19
-12 -86 -39 -149 -60 -157 -53 -205 -87 -297 -211 -101 -136 -188 -180 -299
-150 l-44 12 116 116 c65 65 117 122 117 128 0 12 -92 104 -105 104 -5 0 -62
-52 -126 -116 l-117 -117 -11 39 c-15 53 -13 233 2 261 7 12 51 51 98 87 153
115 209 208 234 391 20 146 38 195 91 254 64 71 132 102 240 109 l86 5 89 121
c49 67 94 129 101 139 12 18 19 16 128 -26 129 -49 149 -71 78 -82 -56 -9
-134 -44 -177 -81 -33 -27 -91 -100 -91 -114 0 -3 31 -21 69 -39 l68 -33 45
44 c50 51 101 68 197 68 65 0 70 -4 47 -49 -31 -59 -114 -111 -178 -111 -16 0
-18 -10 -18 -80 l0 -80 33 0 c17 0 50 5 72 11 39 11 40 10 64 -22 44 -60 166
-173 224 -208 31 -18 96 -47 144 -65 l88 -31 688 -3 687 -3 0 81 0 80 -648 0
c-614 0 -653 1 -726 20 -43 11 -100 32 -129 47 -59 32 -148 111 -188 167 l-28
38 23 32 c40 53 58 97 87 211 16 61 29 113 29 118 0 4 -40 7 -90 7 l-90 0 0
74 c0 210 -94 465 -196 536 -79 53 -198 29 -251 -51 -20 -31 -28 -58 -34 -129
-11 -113 -46 -216 -103 -300 -79 -115 -95 -129 -150 -132 l-49 -3 -68 145
c-149 317 -170 359 -218 433 -169 259 -458 454 -773 523 -101 22 -322 27 -428
9z m17 -310 l-52 -155 -62 122 c-34 68 -62 126 -62 129 -1 9 126 42 221 58 3
1 -17 -69 -45 -154z m495 105 c51 -16 99 -34 107 -39 12 -7 3 -29 -47 -112
-58 -98 -61 -101 -67 -73 -18 79 -38 137 -65 189 -16 31 -30 59 -30 61 0 7 7
5 102 -26z m-223 -110 c34 -63 61 -168 61 -237 0 -41 1 -43 66 -79 141 -79
255 -191 331 -326 23 -40 103 -234 178 -430 l137 -357 -32 -46 c-17 -25 -75
-78 -130 -120 -82 -62 -103 -84 -125 -129 -26 -54 -27 -58 -23 -213 3 -147 5
-162 30 -216 38 -80 117 -160 197 -200 61 -30 73 -32 166 -32 165 1 243 45
365 205 69 91 106 124 156 140 34 12 38 11 55 -11 35 -45 59 -128 69 -237 8
-97 30 -187 59 -239 8 -17 5 -22 -25 -36 l-34 -17 0 -105 c0 -189 49 -353 150
-504 32 -47 78 -105 102 -128 l43 -41 370 58 c204 31 383 63 399 69 16 6 31 9
34 6 10 -10 21 -108 21 -197 l1 -88 -508 0 -509 0 -46 31 c-135 89 -216 256
-217 444 -1 321 -296 550 -605 470 -126 -33 -246 -131 -301 -244 -25 -52 -33
-61 -56 -61 -35 0 -53 34 -114 212 -24 71 -51 140 -60 153 -15 24 -14 26 20
66 75 88 96 215 54 326 -28 76 -104 153 -178 180 l-55 21 -22 198 c-12 110
-24 218 -27 241 l-5 41 49 7 c118 16 254 116 310 229 l31 61 -78 26 -78 26
-19 -36 c-27 -53 -64 -89 -121 -119 -46 -23 -64 -26 -210 -32 -128 -4 -167 -9
-195 -24 -19 -10 -146 -87 -281 -172 -135 -84 -252 -156 -260 -159 -10 -4 -40
38 -100 138 l-86 143 154 333 c85 183 170 359 190 390 49 77 147 171 230 220
60 35 179 80 253 95 23 5 31 22 90 200 73 221 69 218 129 106z m-542 -94 l62
-124 -30 -12 c-16 -7 -54 -30 -84 -51 l-54 -38 -67 110 c-36 60 -64 116 -61
123 5 13 152 116 166 116 3 0 34 -56 68 -124z m1162 -32 c28 -25 60 -59 71
-74 l21 -29 -103 -86 c-56 -47 -105 -84 -109 -83 -4 2 -39 33 -78 71 l-72 67
72 120 71 120 38 -30 c21 -16 61 -50 89 -76z m1122 -262 c20 -39 43 -99 52
-133 14 -56 14 -60 -1 -54 -10 4 -48 18 -85 32 -65 24 -68 28 -63 52 3 14 9
58 12 96 11 110 32 111 85 7z m-875 -92 c75 -154 81 -131 -56 -200 -66 -33
-122 -60 -125 -60 -3 0 -5 5 -5 11 0 6 -18 50 -40 97 l-41 87 43 35 c23 19 70
58 103 87 33 28 63 48 67 45 4 -4 28 -50 54 -102z m158 -337 l18 -37 -29 -20
c-54 -38 -120 -115 -151 -177 -29 -60 -31 -62 -40 -39 -47 121 -72 185 -72
187 0 5 235 122 246 122 6 1 18 -16 28 -36z m1666 -1115 c65 -33 90 -87 90
-193 0 -107 -23 -155 -102 -209 l-58 -40 -57 40 c-80 54 -103 102 -103 209 0
106 25 160 90 193 24 12 56 22 70 22 14 0 46 -10 70 -22z m-2989 -148 c19 -5
54 -26 77 -46 l42 -36 42 36 c77 66 164 68 227 5 54 -54 61 -126 19 -196 l-19
-32 -61 40 c-34 21 -90 48 -126 59 -108 34 -258 24 -349 -23 -41 -22 -39 -22
-47 14 -14 72 30 149 99 174 49 17 51 17 96 5z m193 -339 c59 -26 133 -95 160
-151 13 -25 40 -97 61 -160 21 -63 49 -137 62 -163 l24 -48 -30 -35 c-46 -52
-61 -88 -97 -229 -19 -71 -34 -133 -34 -137 0 -5 90 -8 201 -8 l201 0 99 -51
c60 -31 107 -62 120 -80 l20 -29 -631 0 -631 0 3 433 3 432 26 55 c44 92 131
166 226 190 55 14 165 4 217 -19z m1105 -325 c67 -34 118 -87 149 -154 20 -44
26 -79 33 -177 11 -171 48 -275 145 -413 l16 -22 -244 0 -244 0 -23 54 c-31
77 -98 139 -204 192 l-89 45 4 137 c4 125 7 142 31 189 45 86 123 151 212 174
55 15 159 2 214 -25z m-1739 -56 l0 -70 -65 0 c-36 0 -65 2 -65 5 0 29 96 135
122 135 4 0 8 -31 8 -70z m1120 -315 l0 -75 -66 0 -66 0 5 30 c9 41 35 79 72
101 50 31 55 27 55 -56z m-1280 -955 l0 -400 -80 0 -80 0 0 400 0 400 80 0 80
0 0 -400z m480 240 l0 -160 -160 0 -160 0 0 160 0 160 160 0 160 0 0 -160z
m320 -240 l0 -400 -80 0 -80 0 0 400 0 400 80 0 80 0 0 -400z m480 240 l0
-160 -160 0 -160 0 0 160 0 160 160 0 160 0 0 -160z m320 -240 l0 -400 -80 0
-80 0 0 400 0 400 80 0 80 0 0 -400z m480 240 l0 -160 -160 0 -160 0 0 160 0
160 160 0 160 0 0 -160z m320 -240 l0 -400 -80 0 -80 0 0 400 0 400 80 0 80 0
0 -400z m480 240 l0 -160 -160 0 -160 0 0 160 0 160 160 0 160 0 0 -160z m320
-240 l0 -400 -80 0 -80 0 0 400 0 400 80 0 80 0 0 -400z m480 240 l0 -160
-160 0 -160 0 0 160 0 160 160 0 160 0 0 -160z m320 -240 l0 -400 -80 0 -80 0
0 400 0 400 80 0 80 0 0 -400z m480 240 l0 -160 -160 0 -160 0 0 160 0 160
160 0 160 0 0 -160z m-4000 -480 l0 -160 -160 0 -160 0 0 160 0 160 160 0 160
0 0 -160z m800 0 l0 -160 -160 0 -160 0 0 160 0 160 160 0 160 0 0 -160z m800
0 l0 -160 -160 0 -160 0 0 160 0 160 160 0 160 0 0 -160z m800 0 l0 -160 -160
0 -160 0 0 160 0 160 160 0 160 0 0 -160z m800 0 l0 -160 -160 0 -160 0 0 160
0 160 160 0 160 0 0 -160z m800 0 l0 -160 -160 0 -160 0 0 160 0 160 160 0
160 0 0 -160z"/>
<path d="M905 4055 c-50 -49 -15 -135 55 -135 41 0 80 39 80 80 0 41 -39 80
-80 80 -19 0 -40 -9 -55 -25z"/>
<path d="M905 2135 c-16 -15 -25 -36 -25 -55 0 -19 9 -40 25 -55 15 -16 36
-25 55 -25 19 0 40 9 55 25 16 15 25 36 25 55 0 19 -9 40 -25 55 -15 16 -36
25 -55 25 -19 0 -40 -9 -55 -25z"/>
<path d="M880 1520 l0 -160 80 0 80 0 0 160 0 160 -80 0 -80 0 0 -160z"/>
<path d="M2025 1815 c-50 -49 -15 -135 55 -135 19 0 40 9 55 25 16 15 25 36
25 55 0 19 -9 40 -25 55 -15 16 -36 25 -55 25 -19 0 -40 -9 -55 -25z"/>
<path d="M2505 3415 c-50 -49 -15 -135 55 -135 19 0 40 9 55 25 16 15 25 36
25 55 0 19 -9 40 -25 55 -15 16 -36 25 -55 25 -19 0 -40 -9 -55 -25z"/>
<path d="M3465 2295 c-50 -49 -15 -135 55 -135 41 0 80 39 80 80 0 41 -39 80
-80 80 -19 0 -40 -9 -55 -25z"/>
</g>
</svg>
