<?xml version="1.0" encoding="UTF-8"?>
<svg version="1.1" xmlns="http://www.w3.org/2000/svg" width="512" height="512">
<path d="M0 0 C106.92 0 213.84 0 324 0 C324.0928125 69.8878125 324.0928125 69.8878125 324.1875 141.1875 C324.21481201 155.91656982 324.24212402 170.64563965 324.27026367 185.82104492 C324.28381348 203.7623291 324.28381348 203.7623291 324.28633118 212.15278625 C324.289134 218.03176961 324.30016047 223.91066788 324.31672668 229.78962708 C324.33579428 236.56625784 324.34451451 243.34280673 324.34033485 250.11946454 C324.33852398 253.58761047 324.34143747 257.05557329 324.35764539 260.52368581 C324.3724895 264.23425926 324.36899863 267.94436971 324.36076355 271.654953 C324.37387054 273.28434799 324.37387054 273.28434799 324.38724232 274.94666004 C324.33214986 284.1345599 324.33214986 284.1345599 321 288 C316.87319916 290.45597342 312.57559217 290.27190205 307.9050293 290.22705078 C307.10450638 290.22734283 306.30398346 290.22763489 305.47920227 290.22793579 C302.84409592 290.22654705 300.20927546 290.21100739 297.57421875 290.1953125 C295.74290623 290.19158075 293.91159172 290.18873454 292.08027649 290.18673706 C287.26832534 290.17911337 282.45649559 290.15947573 277.64459229 290.1373291 C272.73117718 290.11684344 267.8177424 290.10772953 262.90429688 290.09765625 C253.26947802 290.07622866 243.63474912 290.04210796 234 290 C234.64965225 289.39176895 235.2993045 288.7835379 235.96864319 288.15687561 C238.88501225 283.62462687 238.55305341 279.77405413 238.50170898 274.48999023 C238.50711197 273.43254608 238.51251495 272.37510193 238.51808167 271.28561401 C238.53058115 267.79298857 238.51407007 264.30118537 238.49609375 260.80859375 C238.4962487 258.38151506 238.49773696 255.95443612 238.50050354 253.52735901 C238.50188805 248.44236302 238.48931939 243.35764891 238.46655273 238.27270508 C238.43815324 231.74998244 238.44090903 225.2277277 238.45364285 218.70497036 C238.46059227 213.69415784 238.45281934 208.68345378 238.44038582 203.67265511 C238.43586525 201.26725747 238.43553978 198.86184821 238.43945122 196.45644951 C238.44235652 193.09759455 238.42588875 189.73938829 238.40405273 186.38061523 C238.40855438 185.38362106 238.41305603 184.38662689 238.41769409 183.35942078 C238.40778946 182.44400513 238.39788483 181.52858948 238.38768005 180.58543396 C238.38525016 179.79181174 238.38282026 178.99818953 238.38031673 178.18051815 C237.89706589 175.40983483 236.91098689 174.04040321 235 172 C232.21256088 171.07085363 230.5282807 170.87064758 227.64871216 170.85955811 C226.31551437 170.85099289 226.31551437 170.85099289 224.9553833 170.84225464 C223.49657745 170.84057785 223.49657745 170.84057785 222.00830078 170.83886719 C220.98201569 170.83390228 219.95573059 170.82893738 218.89834595 170.82382202 C215.49732802 170.80919583 212.09635673 170.80239795 208.6953125 170.796875 C206.33503213 170.79112434 203.97475177 170.7853666 201.61447144 170.77960205 C196.66306337 170.76909105 191.71167156 170.76324889 186.76025391 170.75976562 C180.41249941 170.75427783 174.06495908 170.73024393 167.7172718 170.70179367 C162.84112925 170.68318082 157.96503845 170.67796243 153.08886337 170.67642975 C150.7484711 170.67340012 148.4080798 170.66536121 146.06772232 170.65224457 C142.79514454 170.63521118 139.52309227 170.63705781 136.25048828 170.64355469 C134.79775513 170.62973251 134.79775513 170.62973251 133.31567383 170.6156311 C127.08568317 170.65442168 123.52826058 171.47173942 119 176 C117 174 115 172 113 170 C113.928125 169.6596875 113.928125 169.6596875 114.875 169.3125 C117.79909431 167.50644175 118.03764169 166.32000913 119 163 C119.29429541 159.62407821 119.28343559 156.26010291 119.2746582 152.87304688 C119.2823246 151.34781151 119.2823246 151.34781151 119.29014587 149.79176331 C119.30403459 146.43403217 119.30308582 143.07650642 119.30078125 139.71875 C119.30466814 137.3837476 119.3090028 135.0487459 119.31376648 132.71374512 C119.32122683 127.82134712 119.3209384 122.92902128 119.31567383 118.03662109 C119.3098749 111.76513151 119.32682156 105.49393684 119.3500185 99.22249603 C119.36474359 94.40124787 119.36562928 89.58007098 119.36250877 84.75880432 C119.36302245 82.44632889 119.36826882 80.13384952 119.37832069 77.82139587 C119.39064581 74.58971928 119.38391699 71.35862035 119.37231445 68.12695312 C119.37995819 67.17095718 119.38760193 66.21496124 119.39547729 65.22999573 C119.35680008 60.36035977 119.24974431 56.9148876 116 53 C113.65750716 51.82875358 112.26603123 51.86685582 109.65507507 51.85282898 C108.74240875 51.84567368 107.82974243 51.83851837 106.88941956 51.83114624 C105.88523483 51.82845734 104.88105011 51.82576843 103.84643555 51.82299805 C102.79103577 51.81642685 101.73563599 51.80985565 100.64825439 51.80308533 C97.14440852 51.78332235 93.64060555 51.77168354 90.13671875 51.76171875 C88.94224436 51.75764322 87.74776997 51.7535677 86.51709938 51.74936867 C80.19605303 51.72849595 73.87502846 51.71419895 67.55395508 51.70483398 C61.01666284 51.69376209 54.47971029 51.65935621 47.94253826 51.61966228 C42.92313492 51.59355 37.90381321 51.58514696 32.88434792 51.58155251 C30.47416703 51.57667327 28.06399012 51.56502152 25.65387535 51.54651451 C22.28289032 51.52223656 18.91279324 51.52306763 15.54174805 51.5300293 C14.54363602 51.51721924 13.54552399 51.50440918 12.51716614 51.49121094 C11.59604034 51.49815475 10.67491455 51.50509857 9.72587585 51.51225281 C8.92927897 51.50986445 8.13268209 51.5074761 7.31194592 51.50501537 C4.26416821 51.97725496 4.26416821 51.97725496 0 56 C0 37.52 0 19.04 0 0 Z " fill="#000000" transform="translate(94,222)"/>
<path d="M0 0 C0.89489136 -0.0038269 1.78978271 -0.00765381 2.71179199 -0.01159668 C4.60132982 -0.0143152 6.49090532 -0.00695816 8.38037109 0.00976562 C11.2713619 0.03117677 14.15986767 0.00996266 17.05078125 -0.015625 C18.88802631 -0.01298171 20.72526983 -0.00785671 22.5625 0 C23.85794739 -0.01214539 23.85794739 -0.01214539 25.17956543 -0.02453613 C31.16135562 0.06885009 31.16135562 0.06885009 34.30273438 2.41210938 C36.05085948 4.91767839 36.63225864 6.47692707 36.78125 9.53125 C36.07523708 12.29111868 35.57526043 13.95022981 33.24584961 15.65478516 C29.56376405 16.9642143 25.89754822 16.85666243 22.03515625 16.8671875 C20.76296486 16.8771727 20.76296486 16.8771727 19.46507263 16.88735962 C17.67392135 16.89747022 15.88273252 16.90217713 14.09155273 16.90185547 C11.35662618 16.90622941 8.62331313 16.94256624 5.88867188 16.98046875 C4.14583884 16.98633718 2.40299815 16.9903064 0.66015625 16.9921875 C-0.56192787 17.01374405 -0.56192787 17.01374405 -1.80870056 17.03573608 C-5.81409421 17.00362461 -7.76254937 16.8192562 -11.234375 14.62744141 C-13.21875 12.53125 -13.21875 12.53125 -13.84765625 10.53125 C-13.82574219 9.87125 -13.80382812 9.21125 -13.78125 8.53125 C-13.78253906 7.87125 -13.78382813 7.21125 -13.78515625 6.53125 C-11.80586432 -0.45769806 -6.06363366 -0.05684922 0 0 Z " fill="#000000" transform="translate(142.21875,358.46875)"/>
<path d="M0 0 C0.99 0.495 0.99 0.495 2 1 C2 1.66 2 2.32 2 3 C3.32 3.66 4.64 4.32 6 5 C5.360625 5.103125 4.72125 5.20625 4.0625 5.3125 C3.381875 5.539375 2.70125 5.76625 2 6 C1.67 6.99 1.34 7.98 1 9 C0.67 9 0.34 9 0 9 C0 6.03 0 3.06 0 0 Z " fill="#000000" transform="translate(94,388)"/>
<path d="M0 0 C0.8037355 -0.00428513 1.60747101 -0.00857025 2.43556213 -0.01298523 C4.13256897 -0.01871867 5.82960037 -0.01923605 7.52661133 -0.01489258 C10.11647669 -0.01173391 12.70519776 -0.03519844 15.29492188 -0.06054688 C16.94661315 -0.06282018 18.59830748 -0.06352322 20.25 -0.0625 C21.40646278 -0.07631462 21.40646278 -0.07631462 22.58628845 -0.09040833 C27.13974664 -0.05142092 30.06289854 0.49687569 33.69140625 3.30078125 C35.63804257 5.86680185 35.69911361 7.11195099 35.56640625 10.36328125 C34.55482327 13.75930982 33.73517295 14.5998528 30.69140625 16.30078125 C27.14406346 17.48322885 23.90060354 17.48168056 20.20703125 17.50390625 C19.47321228 17.50960632 18.73939331 17.5153064 17.9833374 17.5211792 C16.42998695 17.53061993 14.87661655 17.5371595 13.32324219 17.54101562 C10.96382972 17.55068931 8.60530068 17.58170675 6.24609375 17.61328125 C4.73307806 17.61981514 3.22005617 17.62506409 1.70703125 17.62890625 C0.65977875 17.64742645 0.65977875 17.64742645 -0.40863037 17.6663208 C-5.49505039 17.64355422 -8.89165874 16.65879852 -13.30859375 14.30078125 C-14.93359375 11.48828125 -14.93359375 11.48828125 -15.30859375 8.30078125 C-14.23897672 5.21077651 -13.40327652 3.09072574 -10.71069336 1.14770508 C-7.18126704 -0.09668763 -3.69791387 -0.00436004 0 0 Z " fill="#000000" transform="translate(143.30859375,477.69921875)"/>
<path d="M0 0 C0.78295441 -0.0033284 1.56590881 -0.0066568 2.37258911 -0.01008606 C4.02849745 -0.01514644 5.68441597 -0.01749466 7.34033203 -0.01733398 C9.86638316 -0.01951705 12.39199507 -0.03767242 14.91796875 -0.05664062 C16.52864434 -0.05957546 18.13932201 -0.06155965 19.75 -0.0625 C20.50223846 -0.06968552 21.25447693 -0.07687103 22.0295105 -0.08427429 C26.11266252 -0.06659793 29.40589779 0.16435678 33.0078125 2.16796875 C35.48820157 5.88855235 35.47118453 7.76593446 35.0078125 12.16796875 C32.65098542 15.36651979 30.84346116 16.4969806 27.0078125 17.16796875 C24.44771558 17.27434892 21.91562851 17.33190994 19.35546875 17.3359375 C18.61832138 17.3392659 17.88117401 17.3425943 17.12168884 17.34602356 C15.56591412 17.35107548 14.01012862 17.35343242 12.4543457 17.35327148 C10.08201151 17.35545797 7.71014263 17.3736316 5.33789062 17.39257812 C3.82291825 17.39551247 2.30794368 17.39749699 0.79296875 17.3984375 C0.0876149 17.40562302 -0.61773895 17.41280853 -1.34446716 17.42021179 C-6.30103901 17.39736321 -10.15878889 16.93814672 -13.8046875 13.41796875 C-15.39458406 10.40553316 -15.4825088 8.53017192 -14.9921875 5.16796875 C-10.81566791 -0.16069417 -6.33293027 0.00931847 0 0 Z " fill="#000000" transform="translate(262.9921875,477.83203125)"/>
<path d="M0 0 C1.65 1.65 3.3 3.3 5 5 C2.03 5 -0.94 5 -4 5 C-2.68 3.35 -1.36 1.7 0 0 Z " fill="#000000" transform="translate(213,507)"/>
</svg>
